<svg xmlns="http://www.w3.org/2000/svg" version="1.1" xmlns:xlink="http://www.w3.org/1999/xlink" xmlns:svgjs="http://svgjs.com/svgjs" width="1920" height="560" preserveAspectRatio="none" viewBox="0 0 1920 560"><g mask="url(&quot;#SvgjsMask1234&quot;)" fill="none"><rect width="1920" height="560" x="0" y="0" fill="url(#SvgjsLinearGradient1235)"></rect><path d="M1920 0L1093.1100000000001 0L1920 73.19z" fill="rgba(255, 255, 255, .1)"></path><path d="M1093.1100000000001 0L1920 73.19L1920 263.94L785.1200000000001 0z" fill="rgba(255, 255, 255, .075)"></path><path d="M785.1199999999999 0L1920 263.94L1920 355.3L551.3999999999999 0z" fill="rgba(255, 255, 255, .05)"></path><path d="M551.3999999999999 0L1920 355.3L1920 485.96000000000004L418.83999999999986 0z" fill="rgba(255, 255, 255, .025)"></path><path d="M0 560L330.58 560L0 343.14z" fill="rgba(0, 0, 0, .1)"></path><path d="M0 343.14L330.58 560L918.79 560L0 213.1z" fill="rgba(0, 0, 0, .075)"></path><path d="M0 213.10000000000002L918.79 560L1347.2 560L0 179.64000000000001z" fill="rgba(0, 0, 0, .05)"></path><path d="M0 179.64000000000004L1347.2 560L1729.63 560L0 136.70000000000005z" fill="rgba(0, 0, 0, .025)"></path></g><defs><mask id="SvgjsMask1234"><rect width="1920" height="560" fill="#ffffff"></rect></mask><linearGradient x1="17.71%" y1="-60.71%" x2="82.29%" y2="160.71%" gradientUnits="userSpaceOnUse" id="SvgjsLinearGradient1235"><stop stop-color="#0e2a47" offset="0"></stop><stop stop-color="rgba(0, 0, 0, 1)" offset="1"></stop></linearGradient></defs></svg>